<?xml version="1.0" encoding="UTF-8" standalone="no"?>
<!-- Created with Inkscape (http://www.inkscape.org/) -->

<svg
   width="114.92213mm"
   height="36.690704mm"
   viewBox="0 0 114.92213 36.690704"
   version="1.1"
   id="svg5"
   xmlns:xlink="http://www.w3.org/1999/xlink"
   xmlns="http://www.w3.org/2000/svg"
   xmlns:svg="http://www.w3.org/2000/svg">
  <defs
     id="defs2">
    <linearGradient
       id="linearGradient4198">
      <stop
         style="stop-color:#404040;stop-opacity:0;"
         offset="0"
         id="stop4196" />
      <stop
         style="stop-color:#64672f;stop-opacity:0.67320269;"
         offset="0.15283839"
         id="stop4204" />
    </linearGradient>
    <linearGradient
       id="linearGradient4146">
      <stop
         style="stop-color:#e3e3e3;stop-opacity:1;"
         offset="0"
         id="stop4144" />
    </linearGradient>
    <linearGradient
       id="linearGradient2582">
      <stop
         style="stop-color:#00c3b7;stop-opacity:1;"
         offset="0.28384277"
         id="stop2578" />
      <stop
         style="stop-color:#2dd281;stop-opacity:1;"
         offset="1"
         id="stop6517" />
      <stop
         style="stop-color:#9bdc00;stop-opacity:0;"
         offset="1"
         id="stop2580" />
    </linearGradient>
    <linearGradient
       id="linearGradient2492">
      <stop
         style="stop-color:#f4d66a;stop-opacity:1;"
         offset="0"
         id="stop2490" />
    </linearGradient>
    <radialGradient
       xlink:href="#linearGradient2582"
       id="radialGradient2584"
       cx="-21.886353"
       cy="121.01272"
       fx="-21.886353"
       fy="121.01272"
       r="58.637665"
       gradientTransform="matrix(1.9503647,0.96159416,-0.31210126,0.63302305,119.47738,-52.729249)"
       gradientUnits="userSpaceOnUse" />
  </defs>
  <g
     id="layer2"
     transform="translate(-43.55729,-126.74542)">
    <g
       aria-label="TEST TRADE"
       id="text120"
       style="font-weight:bold;font-size:14.1111px;font-family:'Microsoft YaHei UI';-inkscape-font-specification:'Microsoft YaHei UI, Bold';white-space:pre;inline-size:89.3693;fill:#006ca8;fill-opacity:1;stroke-width:0.265">
      <path
         d="m 61.664334,141.77343 h -3.045462 v 8.81254 h -2.280651 v -8.81254 h -3.038572 v -1.86035 h 8.364685 z"
         style="fill:#006ca8;fill-opacity:1"
         id="path1102" />
      <path
         d="m 69.443354,150.58597 h -6.3183 v -10.67289 h 6.070254 v 1.86035 h -3.796493 v 2.51491 h 3.527775 v 1.85346 h -3.527775 v 2.58382 h 4.044539 z"
         style="fill:#006ca8;fill-opacity:1"
         id="path1104" />
      <path
         d="m 70.704258,147.8988 q 1.288465,1.06798 2.928329,1.06798 0.930175,0 1.398708,-0.31695 0.468532,-0.32384 0.468532,-0.82682 0,-0.43408 -0.37207,-0.81993 -0.37207,-0.38585 -1.963703,-1.04731 -2.501137,-1.06109 -2.501137,-3.08681 0,-1.48828 1.12999,-2.30821 1.136881,-0.82682 3.004121,-0.82682 1.564072,0 2.625161,0.40652 v 2.13596 q -1.074869,-0.73036 -2.514918,-0.73036 -0.840602,0 -1.343586,0.31006 -0.502983,0.30317 -0.502983,0.81993 0,0.41341 0.344509,0.76481 0.344509,0.34451 1.701876,0.93707 1.591633,0.68212 2.184188,1.44004 0.599447,0.75792 0.599447,1.80523 0,1.53651 -1.08865,2.34267 -1.088649,0.80615 -3.093693,0.80615 -1.832789,0 -3.004121,-0.59256 z"
         style="fill:#006ca8;fill-opacity:1"
         id="path1106" />
      <path
         d="m 87.047778,141.77343 h -3.045462 v 8.81254 h -2.280651 v -8.81254 h -3.038572 v -1.86035 h 8.364685 z"
         style="fill:#006ca8;fill-opacity:1"
         id="path1108" />
      <path
         d="M 108.26146,129.84176 H 105.216 v 8.81254 h -2.28065 v -8.81254 h -3.038569 v -1.86035 h 8.364679 z"
         style="fill:#006ca8;fill-opacity:1"
         id="path1110" />
      <path
         d="m 118.52784,138.6543 h -2.61827 l -1.67432,-2.77674 q -0.51676,-0.86128 -0.84749,-1.10932 -0.33073,-0.24805 -0.7028,-0.24805 h -0.68902 v 4.13411 h -2.27376 v -10.67289 h 3.74137 q 3.81028,0 3.81028,2.89387 0,1.08865 -0.64079,1.86724 -0.6339,0.77859 -1.75011,1.09554 v 0.0276 q 0.73725,0.24805 1.63297,1.62609 z m -6.5319,-8.94346 v 3.07302 h 1.11621 q 0.79926,0 1.28158,-0.46164 0.4892,-0.46853 0.4892,-1.16444 0,-1.44694 -1.72944,-1.44694 z"
         style="fill:#006ca8;fill-opacity:1"
         id="path1112" />
      <path
         d="m 128.83556,138.6543 h -2.48047 l -0.79926,-2.44601 h -3.87918 l -0.78548,2.44601 h -2.46668 l 3.90673,-10.67289 h 2.67339 z m -3.81717,-4.20301 -1.21267,-3.70003 q -0.11713,-0.3514 -0.16536,-0.93018 h -0.062 q -0.0414,0.46854 -0.18604,0.90262 l -1.21956,3.72759 z"
         style="fill:#006ca8;fill-opacity:1"
         id="path1114" />
      <path
         d="m 130.18603,138.6543 v -10.67289 h 3.68625 q 5.68441,0 5.68441,5.20209 0,2.47357 -1.59164,3.97563 -1.59163,1.49517 -4.10655,1.49517 z m 2.27376,-8.81254 v 6.95219 h 1.24024 q 1.61919,0 2.54248,-0.96462 0.92328,-0.96463 0.92328,-2.61138 0,-1.59164 -0.96462,-2.48047 -0.96463,-0.89572 -2.50803,-0.89572 z"
         style="fill:#006ca8;fill-opacity:1"
         id="path1116" />
      <path
         d="m 147.67332,138.6543 h -6.3183 v -10.67289 h 6.07026 v 1.86035 h -3.79649 v 2.51491 h 3.52777 v 1.85346 h -3.52777 v 2.58382 h 4.04453 z"
         style="fill:#006ca8;fill-opacity:1"
         id="path1118" />
    </g>
  </g>
  <path
     style="fill:#0f4c64;fill-opacity:1;stroke:url(#radialGradient2584);stroke-width:2.165;stroke-linecap:butt;stroke-linejoin:miter;stroke-miterlimit:7;stroke-dasharray:none;stroke-opacity:0.486911;paint-order:markers stroke fill"
     d="m 50.648438,2.828125 0.117187,0.1835938 6.763672,10.5429692 h 6.302734 21.447266 24.339843 l -4.91016,2.091796 H 56.626953 L 51.183594,7.0078125 51.039062,7.7519531 c -2.283556,11.8009379 -1.150373,5.9488919 -2.388671,12.2109379 -0.311434,1.574913 -0.629621,3.173801 -0.9375,4.710937 -0.384854,1.921444 -0.754167,3.745907 -1.076172,5.304688 -0.178892,0.865989 -0.344124,1.649437 -0.488281,2.322265 -0.160206,0.74773 -0.293794,1.356775 -0.396485,1.789063 -0.0187,0.07872 -0.03248,0.123349 -0.04883,0.189453 -0.529969,-0.637105 -1.910362,-2.514212 -3.144531,-4.230469 -0.493279,-0.685961 -0.942042,-1.313021 -1.267578,-1.769531 -0.325439,-0.456373 -0.123064,-0.172362 -0.527344,-0.742188 L 40.519531,27.410156 H 6.2050781 l -2.4003906,-1.460937 37.6425785,-0.34375 3.642578,5.375 3.0625,-15.509766 z"
     id="path1176" />
</svg>
